<svg width="320" height="250" viewBox="0 0 320 250" fill="none" xmlns="http://www.w3.org/2000/svg">
<foreignObject x="-9.47255" y="47.876" width="338.945" height="219.192"><div xmlns="http://www.w3.org/1999/xhtml" style="backdrop-filter:blur(13.91px);clip-path:url(#bgblur_0_2_8326_clip_path);height:100%;width:100%"></div></foreignObject><g data-figma-bg-blur-radius="27.8206">
<rect width="203.677" height="165.819" rx="36.1667" transform="matrix(0.866045 -0.499966 0.866045 0.499966 0 166.936)" fill="url(#paint0_linear_2_8326)" fill-opacity="0.6"/>
<rect x="2.40939" width="200.895" height="163.037" rx="34.7757" transform="matrix(0.866045 -0.499966 0.866045 0.499966 0.32275 168.141)" stroke="url(#paint1_linear_2_8326)" stroke-opacity="0.7" stroke-width="2.78206"/>
</g>
<path d="M153.028 45.8001L186.821 26.2736L186.849 35.3936C186.849 38.0524 185.02 41.2544 182.704 42.5695L157.231 57.2643C154.915 58.608 153.057 57.5502 153.028 54.8914V45.8001ZM181.589 37.8237C182.332 37.3948 182.961 36.337 182.933 35.4793C182.933 34.6217 182.304 34.2786 181.56 34.7074L176.243 37.7951C175.499 38.2239 174.871 39.2817 174.899 40.1394C174.899 40.9971 175.528 41.3401 176.271 40.9113L181.589 37.8237ZM158.317 51.2606C159.061 50.8318 159.69 49.774 159.661 48.9163C159.661 48.0586 159.032 47.7155 158.289 48.1444C157.545 48.5732 156.916 49.631 156.945 50.4887C156.945 51.3464 157.545 51.6894 158.317 51.2606ZM163.635 48.2016C164.378 47.7727 165.007 46.7149 164.979 45.8572C164.979 44.9996 164.35 44.6565 163.606 45.0853C162.863 45.5142 162.234 46.572 162.263 47.4296C162.263 48.2873 162.892 48.6304 163.635 48.2016Z" fill="#989898"/>
<path d="M181.59 34.7071C182.333 34.2782 182.962 34.6213 182.962 35.479C182.962 36.3367 182.361 37.3945 181.618 37.8233L176.301 40.911C175.557 41.3398 174.928 40.9967 174.928 40.139C174.928 39.2814 175.529 38.2236 176.272 37.7947L181.59 34.7071Z" fill="#59595A"/>
<path d="M201.06 34.6502L201.318 128.423L139.136 164.331L138.878 70.5298L201.06 34.6502Z" fill="url(#paint2_linear_2_8326)"/>
<path d="M178.931 1.9157L178.903 1.88712C178.788 1.82994 178.674 1.77276 178.531 1.71558C178.417 1.6584 178.274 1.62981 178.159 1.57263C178.073 1.54404 177.988 1.54404 177.902 1.51546C177.873 1.51546 177.873 1.51546 177.845 1.51546C177.816 1.51546 177.788 1.48687 177.759 1.48687C177.616 1.45828 177.473 1.45828 177.33 1.42969C177.187 1.42969 177.016 1.42969 176.844 1.42969C176.787 1.42969 176.73 1.42969 176.701 1.45828C176.673 1.45828 176.644 1.45828 176.587 1.45828C176.501 1.45828 176.415 1.45828 176.301 1.48687C176.101 1.51546 175.901 1.57263 175.672 1.62981C175.586 1.6584 175.5 1.68699 175.415 1.71558C175.329 1.74417 175.243 1.77276 175.157 1.80135C175.043 1.82994 174.957 1.85853 174.843 1.9157C174.528 2.05865 174.185 2.2016 173.842 2.40172L160.205 10.2924L126.413 29.8188L112.775 37.6809C112.318 37.9382 111.861 38.2527 111.432 38.6243C111.289 38.7387 111.146 38.8816 111.031 38.996C110.831 39.1675 110.603 39.339 110.403 39.5392C110.317 39.6249 110.231 39.7393 110.117 39.8251C110.031 39.9108 109.945 39.9966 109.888 40.0824C109.802 40.1681 109.716 40.2539 109.631 40.3683C109.43 40.597 109.23 40.8257 109.059 41.083C109.002 41.1688 108.916 41.2545 108.859 41.3689C108.83 41.4261 108.802 41.4546 108.773 41.5118C108.716 41.5976 108.659 41.6834 108.601 41.7405C108.458 41.9407 108.315 42.1408 108.201 42.3695C108.087 42.5696 107.944 42.7698 107.829 42.9699C107.829 42.9985 107.801 43.0271 107.801 43.0271C107.801 43.0556 107.772 43.0556 107.772 43.0842C107.687 43.2558 107.601 43.3987 107.515 43.5703C107.401 43.7704 107.315 43.9705 107.201 44.1706C107.115 44.3708 107.029 44.5423 106.943 44.7424V44.771C106.943 44.771 106.943 44.771 106.943 44.7996C106.857 44.9997 106.772 45.2284 106.686 45.4571C106.6 45.6859 106.514 45.9146 106.429 46.1433C106.4 46.2576 106.371 46.372 106.314 46.4864C106.286 46.5435 106.286 46.5721 106.257 46.6293C106.228 46.7151 106.2 46.8008 106.171 46.858C106.086 47.1439 106.028 47.4012 105.971 47.6871C105.943 47.8586 105.914 48.0302 105.885 48.1731C105.857 48.2589 105.857 48.3447 105.828 48.4304C105.828 48.5162 105.8 48.5734 105.8 48.6591C105.742 49.1452 105.714 49.6026 105.714 50.06L106.028 160.529C106.028 160.529 105.542 164.531 109.402 167.019C113.261 169.506 134.846 181.142 134.846 181.142L133.789 172.479L132.588 171.85L132.302 66.0128C132.302 65.4696 132.359 64.9264 132.445 64.3832C132.445 64.2975 132.473 64.2117 132.502 64.1259C132.588 63.6113 132.702 63.0967 132.874 62.5821C132.902 62.5249 132.902 62.4963 132.931 62.4392C133.102 61.8674 133.303 61.2956 133.56 60.7524V60.7238C133.817 60.152 134.103 59.6088 134.389 59.0656C134.389 59.037 134.418 59.037 134.418 59.0084C134.732 58.4938 135.047 57.9792 135.418 57.4932C135.447 57.436 135.475 57.4074 135.504 57.3503C135.847 56.8928 136.19 56.4926 136.562 56.0923C136.648 56.0066 136.705 55.9208 136.79 55.835C137.076 55.5206 137.391 55.2633 137.705 54.9774C137.848 54.863 137.963 54.7201 138.106 54.6057C138.534 54.2626 138.992 53.9482 139.449 53.6623L153.086 45.8002L186.822 26.2738L200.459 18.3831C200.916 18.1258 201.345 17.9257 201.774 17.7827C201.86 17.7542 201.946 17.7256 202.031 17.697C202.432 17.5826 202.832 17.4683 203.203 17.4397C203.232 17.4397 203.261 17.4397 203.318 17.4397C203.718 17.4111 204.118 17.4397 204.461 17.4968C204.49 17.4968 204.49 17.4968 204.519 17.4968C204.89 17.5826 205.233 17.697 205.548 17.8971L178.931 1.9157Z" fill="url(#paint3_linear_2_8326)"/>
<path d="M207.634 22.4998C207.634 17.9541 204.404 16.1244 200.458 18.383L186.821 26.2736L186.85 35.3936C186.85 38.0524 185.02 41.2544 182.704 42.5695L157.231 57.2643C154.915 58.608 153.057 57.5502 153.029 54.8914L153 45.7715L139.363 53.6335C135.418 55.9207 132.244 61.4384 132.244 65.9841L132.559 176.453C132.559 180.999 135.789 182.8 139.735 180.541L200.83 145.291C204.775 143.004 207.949 137.486 207.949 132.969L207.634 22.4998ZM139.134 164.331L138.877 70.5298L201.059 34.6217L201.316 128.423L139.134 164.331Z" fill="#D7DBDD"/>
<path d="M157.831 42.455L147.196 48.5159L141.879 51.5464C140.163 52.5756 138.219 53.4332 136.675 54.9771C133.702 57.9503 131.615 61.9814 131.615 66.327L131.586 78.5632L131.958 127.508C132.044 143.832 132.244 160.157 132.587 176.453C132.816 160.128 132.959 143.804 132.93 127.508L133.044 78.5632L132.959 66.327C132.902 62.4674 134.817 58.6079 137.533 55.8633C138.877 54.4625 140.706 53.6334 142.479 52.547L147.768 49.4593L158.346 43.2841C172.469 35.1075 186.507 26.7881 200.515 18.3828C186.192 26.302 171.983 34.307 157.831 42.455Z" fill="#F8FBFD"/>
<path d="M173.272 156.78C174.946 153.9 174.953 150.78 173.288 149.812C171.622 148.844 168.915 150.395 167.241 153.275C165.567 156.155 165.56 159.275 167.225 160.243C168.89 161.211 171.598 159.661 173.272 156.78Z" fill="#B2B2B2"/>
<path d="M194.084 108.696L194.112 119.646L151.6 144.204L151.571 133.254L194.084 108.696Z" fill="#D7DBDD"/>
<path d="M194.027 91.286L194.056 102.236L151.543 126.794L151.515 115.844L194.027 91.286Z" fill="#D7DBDD"/>
<path d="M172.67 64.6397C180.475 60.1512 186.822 63.7534 186.85 72.7019C186.85 76.7615 185.564 81.1929 183.448 85.2526C182.276 81.3358 178.988 79.7062 174.843 81.1643C177.444 78.6484 179.331 74.7317 179.331 71.3868C179.331 67.1841 176.358 65.4974 172.699 67.613C169.039 69.7286 166.095 74.8461 166.095 79.0201C166.095 82.365 168.01 84.0804 170.612 83.5944C166.495 86.8821 163.207 92.3141 162.063 97.5745C159.919 95.9735 158.633 93.0288 158.604 88.9977C158.576 80.0493 164.865 69.1282 172.67 64.6397Z" fill="#3447A2"/>
<path d="M172.671 67.6139C176.33 65.4983 179.303 67.1851 179.303 71.3877C179.303 74.7326 177.445 78.6208 174.815 81.1652C178.96 79.7071 182.248 81.3081 183.42 85.2535C180.847 90.228 177.016 94.6307 172.728 97.0894C168.439 99.5481 164.608 99.5767 162.007 97.604C163.15 92.3436 166.438 86.9116 170.555 83.6239C167.953 84.1099 166.038 82.3945 166.038 79.0496C166.067 74.8184 169.011 69.7295 172.671 67.6139Z" fill="#A9C1FF"/>
<defs>
<clipPath id="bgblur_0_2_8326_clip_path" transform="translate(9.47255 -47.876)"><rect width="203.677" height="165.819" rx="36.1667" transform="matrix(0.866045 -0.499966 0.866045 0.499966 0 166.936)"/>
</clipPath><linearGradient id="paint0_linear_2_8326" x1="3.40882" y1="9.98593e-06" x2="231.486" y2="105.96" gradientUnits="userSpaceOnUse">
<stop stop-color="white" stop-opacity="0.6"/>
<stop offset="1" stop-color="#C4C4C4" stop-opacity="0.1"/>
</linearGradient>
<linearGradient id="paint1_linear_2_8326" x1="5.11323" y1="5.83068" x2="230.035" y2="107.516" gradientUnits="userSpaceOnUse">
<stop stop-color="white"/>
<stop offset="0.572917" stop-color="#FFFACB" stop-opacity="0.763934"/>
<stop offset="0.71875" stop-color="#A056B3"/>
<stop offset="1" stop-color="white" stop-opacity="0.85"/>
</linearGradient>
<linearGradient id="paint2_linear_2_8326" x1="234.215" y1="164.577" x2="150.283" y2="79.3608" gradientUnits="userSpaceOnUse">
<stop offset="0.116" stop-color="#CE7B1A"/>
<stop offset="0.753" stop-color="#03B856"/>
<stop offset="1" stop-color="#03B856"/>
</linearGradient>
<linearGradient id="paint3_linear_2_8326" x1="188.789" y1="-7.3558" x2="92.7976" y2="162.43" gradientUnits="userSpaceOnUse">
<stop stop-color="#C4C4C4"/>
<stop offset="0.064" stop-color="#B2B2B2"/>
<stop offset="0.279" stop-color="#B2B2B2"/>
<stop offset="0.426" stop-color="#737374"/>
<stop offset="0.784" stop-color="#B2B2B2"/>
<stop offset="0.935" stop-color="#B2B2B2"/>
<stop offset="1" stop-color="#4F4F50"/>
</linearGradient>
</defs>
</svg>
