<svg width="320" height="227" viewBox="0 0 320 227" fill="none" xmlns="http://www.w3.org/2000/svg">
<foreignObject x="-9.47256" y="24.2914" width="338.945" height="219.192"><div xmlns="http://www.w3.org/1999/xhtml" style="backdrop-filter:blur(13.91px);clip-path:url(#bgblur_0_2_8401_clip_path);height:100%;width:100%"></div></foreignObject><g data-figma-bg-blur-radius="27.8206">
<rect width="203.677" height="165.819" rx="36.1668" transform="matrix(0.866045 -0.499967 0.866045 0.499967 0 143.352)" fill="url(#paint0_linear_2_8401)" fill-opacity="0.6"/>
<rect x="2.40939" width="200.895" height="163.037" rx="34.7757" transform="matrix(0.866045 -0.499967 0.866045 0.499967 0.32275 144.556)" stroke="url(#paint1_linear_2_8401)" stroke-opacity="0.7" stroke-width="2.78206"/>
</g>
<path d="M135.661 24.4401C135.007 24.0742 134.328 23.7344 133.622 23.4469C133.596 23.4207 133.543 23.4207 133.491 23.3946C133.387 23.3423 133.256 23.3162 133.125 23.2639C132.707 23.107 132.315 22.9764 131.871 22.8457C131.635 22.7672 131.4 22.7411 131.165 22.6627C131.034 22.6365 130.903 22.5843 130.747 22.5581C130.616 22.532 130.511 22.5059 130.381 22.4797C129.91 22.3752 129.44 22.2967 128.969 22.2445C128.812 22.2183 128.629 22.2183 128.446 22.1922C128.316 22.166 128.211 22.166 128.08 22.1399C127.897 22.1138 127.741 22.0876 127.558 22.0876C127.087 22.0615 126.617 22.0354 126.146 22.0092C125.989 22.0092 125.859 22.0092 125.702 22.0092C125.571 22.0092 125.44 22.0092 125.31 22.0092C125.101 22.0092 124.891 22.0092 124.656 22.0092C124.133 22.0354 123.585 22.0615 123.062 22.1138C123.009 22.1138 122.957 22.1399 122.879 22.1399C122.748 22.166 122.617 22.1922 122.461 22.1922C122.042 22.2445 121.624 22.2967 121.232 22.3752C120.918 22.4274 120.605 22.5059 120.291 22.5843C120.213 22.6104 120.108 22.6104 120.03 22.6365C119.507 22.7672 119.01 22.8979 118.514 23.0548C118.304 23.107 118.122 23.2116 117.939 23.2639C117.756 23.3423 117.573 23.3946 117.39 23.473C116.684 23.7605 116.03 24.048 115.403 24.414C115.351 24.4401 115.299 24.4924 115.22 24.5185C115.089 24.597 114.985 24.6754 114.854 24.7799C114.671 24.8845 114.514 24.989 114.358 25.1197C114.227 25.2243 114.096 25.3288 113.965 25.4334C113.809 25.5641 113.678 25.6686 113.521 25.7993C113.495 25.8255 113.469 25.8516 113.443 25.8778C113.39 25.93 113.338 25.9823 113.286 26.0346C113.077 26.2437 112.868 26.4528 112.685 26.6881C112.632 26.7403 112.58 26.7926 112.554 26.8188C112.528 26.871 112.502 26.9233 112.449 26.9756C112.319 27.1324 112.214 27.3154 112.11 27.4722C112.057 27.5506 112.005 27.6029 111.979 27.6813C111.953 27.7075 111.953 27.7597 111.927 27.7859C111.848 27.9427 111.796 28.0734 111.718 28.2302C111.691 28.3087 111.639 28.4132 111.587 28.4916C111.587 28.5178 111.561 28.5439 111.561 28.5701C111.508 28.7007 111.482 28.8576 111.43 28.9883C111.404 29.0928 111.378 29.1712 111.352 29.2758C111.352 29.3019 111.352 29.3281 111.352 29.3542C111.325 29.511 111.325 29.6679 111.299 29.7986C111.299 29.9031 111.273 29.9815 111.273 30.0861C111.273 30.1384 111.273 30.1645 111.273 30.2168L111.038 113.286C111.038 113.155 111.064 112.998 111.064 112.868C111.09 112.711 111.09 112.554 111.116 112.423C111.142 112.293 111.169 112.188 111.195 112.057C111.221 111.927 111.273 111.77 111.325 111.639C111.378 111.535 111.43 111.404 111.482 111.299C111.535 111.142 111.613 111.012 111.691 110.855C111.744 110.75 111.822 110.646 111.874 110.541C111.979 110.384 112.083 110.201 112.214 110.045C112.293 109.94 112.371 109.862 112.449 109.757C112.632 109.548 112.841 109.313 113.051 109.104C113.129 109.025 113.207 108.947 113.286 108.868C113.417 108.738 113.573 108.633 113.73 108.502C113.861 108.398 113.992 108.293 114.122 108.189C114.279 108.084 114.462 107.954 114.619 107.849C114.802 107.744 114.959 107.614 115.168 107.509C115.795 107.143 116.449 106.856 117.154 106.568C117.337 106.49 117.52 106.437 117.703 106.359C118.383 106.124 119.063 105.889 119.794 105.732C119.873 105.706 119.977 105.706 120.056 105.679C120.762 105.523 121.493 105.392 122.225 105.314C122.356 105.287 122.513 105.261 122.644 105.261C123.428 105.183 124.238 105.131 125.048 105.131C125.179 105.131 125.31 105.131 125.44 105.131C126.225 105.131 127.035 105.183 127.819 105.261C127.95 105.261 128.054 105.287 128.185 105.314C128.969 105.418 129.727 105.549 130.485 105.706C130.616 105.732 130.747 105.784 130.903 105.81C131.583 105.967 132.236 106.176 132.89 106.411C132.995 106.464 133.125 106.49 133.256 106.542C134.014 106.83 134.746 107.169 135.425 107.561L212.352 151.971L212.587 68.9022L135.661 24.4401Z" fill="#BA620C"/>
<path d="M216.69 66.4708L216.455 149.54L212.351 151.919L212.587 68.8495L216.69 66.4708Z" fill="#CD7A19"/>
<path d="M135.661 32.2562C135.007 31.8902 134.328 31.5504 133.622 31.2629C133.596 31.2368 133.543 31.2368 133.491 31.2106C133.387 31.1583 133.256 31.1322 133.125 31.0799C132.707 30.9231 132.315 30.7663 131.871 30.6617C131.635 30.5833 131.4 30.5571 131.165 30.4787C131.034 30.4526 130.903 30.4003 130.747 30.3742C130.616 30.348 130.511 30.3219 130.381 30.2958C129.91 30.1912 129.44 30.1128 128.969 30.0605C128.812 30.0344 128.629 30.0344 128.446 30.0082C128.316 29.9821 128.211 29.9821 128.08 29.956C127.897 29.9298 127.741 29.9037 127.558 29.9037C127.087 29.8775 126.617 29.8514 126.146 29.8253C125.989 29.8253 125.859 29.8253 125.702 29.8253C125.571 29.8253 125.44 29.8253 125.31 29.8253C125.101 29.8253 124.891 29.8253 124.656 29.8253C124.133 29.8514 123.585 29.8775 123.062 29.9298C123.009 29.9298 122.957 29.956 122.879 29.956C122.748 29.9821 122.617 30.0082 122.461 30.0082C122.042 30.0605 121.624 30.1128 121.232 30.1912C120.918 30.2435 120.605 30.3219 120.291 30.4003C120.213 30.4264 120.108 30.4264 120.03 30.4526C119.507 30.5833 119.01 30.714 118.514 30.8708C118.304 30.9231 118.122 31.0276 117.939 31.0799C117.756 31.1583 117.573 31.2106 117.39 31.289C116.684 31.5766 116.03 31.8641 115.403 32.23C115.351 32.2562 115.299 32.3084 115.22 32.3346C115.089 32.413 114.985 32.4914 114.854 32.5698C114.671 32.6744 114.514 32.7789 114.358 32.9096C114.227 33.0142 114.096 33.1187 113.965 33.2233C113.809 33.354 113.678 33.4585 113.521 33.5892C113.495 33.6154 113.469 33.6415 113.443 33.6677C113.39 33.7199 113.338 33.7722 113.286 33.8245C113.077 34.0336 112.868 34.2427 112.685 34.478C112.632 34.5302 112.58 34.5825 112.554 34.6087C112.528 34.6609 112.502 34.7132 112.449 34.7655C112.319 34.9223 112.214 35.1053 112.11 35.2621C112.057 35.3405 112.005 35.3928 111.979 35.4712C111.953 35.4974 111.953 35.5497 111.927 35.5758C111.848 35.7326 111.796 35.8633 111.718 36.0201C111.691 36.0986 111.639 36.2031 111.587 36.2815C111.587 36.3077 111.561 36.3338 111.561 36.36C111.508 36.4906 111.482 36.6475 111.43 36.7782C111.404 36.8827 111.378 36.9611 111.352 37.0657C111.352 37.0918 111.352 37.118 111.352 37.1441C111.325 37.301 111.325 37.4578 111.299 37.5885C111.299 37.693 111.273 37.7714 111.273 37.876C111.273 37.9283 111.273 37.9544 111.273 38.0067L111.038 121.076C111.038 120.945 111.064 120.788 111.064 120.658C111.09 120.501 111.09 120.344 111.116 120.213C111.142 120.082 111.169 119.978 111.195 119.847C111.221 119.717 111.273 119.56 111.325 119.429C111.378 119.324 111.43 119.194 111.482 119.089C111.535 118.932 111.613 118.802 111.691 118.645C111.744 118.54 111.822 118.436 111.874 118.331C111.979 118.174 112.083 117.991 112.214 117.835C112.293 117.73 112.371 117.652 112.449 117.547C112.632 117.338 112.841 117.103 113.051 116.894C113.129 116.815 113.207 116.737 113.286 116.658C113.417 116.528 113.573 116.423 113.73 116.292C113.861 116.188 113.992 116.083 114.122 115.979C114.279 115.874 114.462 115.743 114.619 115.639C114.802 115.534 114.959 115.404 115.168 115.299C115.795 114.933 116.449 114.646 117.154 114.358C117.337 114.28 117.52 114.227 117.703 114.149C118.383 113.914 119.063 113.678 119.794 113.522C119.873 113.496 119.977 113.496 120.056 113.469C120.762 113.313 121.493 113.182 122.225 113.103C122.356 113.077 122.513 113.051 122.644 113.051C123.428 112.973 124.238 112.92 125.048 112.92C125.179 112.92 125.31 112.92 125.44 112.92C126.225 112.92 127.035 112.973 127.819 113.051C127.95 113.051 128.054 113.077 128.185 113.103C128.969 113.208 129.727 113.339 130.485 113.496C130.616 113.522 130.747 113.574 130.903 113.6C131.583 113.757 132.236 113.966 132.89 114.201C132.995 114.254 133.125 114.28 133.256 114.332C134.014 114.619 134.746 114.959 135.425 115.351L172.752 132.812L188.174 157.879L207.046 148.861V73.477L135.661 32.2562Z" fill="#804C10"/>
<path d="M111.482 38.504C109.992 37.6414 108.79 36.7004 107.875 35.681C106.333 33.982 105.575 32.1 105.575 30.2441L105.34 113.287C105.34 116.293 107.3 119.273 111.247 121.573L188.174 165.983L188.409 82.9138L111.482 38.504Z" fill="url(#paint2_linear_2_8401)"/>
<path d="M192.513 80.5324L192.277 163.601L188.174 165.98L188.409 82.911L192.513 80.5324Z" fill="#CD7A19"/>
<path d="M216.69 66.4721L212.586 68.8507L135.66 24.4409C130.092 21.2259 121.048 21.2259 115.507 24.4409C109.965 27.656 109.992 32.9099 115.585 36.125L192.512 80.5348L188.408 82.9134L111.481 38.5036C103.64 33.9816 103.588 26.5843 111.377 22.0623C119.166 17.5403 131.896 17.5403 139.764 22.0623L216.69 66.4721Z" fill="#F28830"/>
<path d="M135.4 23.944C148.338 31.2368 161.251 38.5818 174.137 46.0052L212.797 68.197L212.98 68.3015V68.5368C212.77 96.3223 212.77 124.108 212.352 151.893C212.117 124.108 212.248 96.3223 212.195 68.5368L212.378 68.8766L173.85 46.5018C160.989 39.0261 148.181 31.5243 135.4 23.944Z" fill="#FAC23B"/>
<path d="M111.117 38.0574C124.055 45.3502 136.968 52.6952 149.854 60.1186L188.514 82.3104L188.697 82.415V82.6502C188.487 110.436 188.487 138.221 188.069 166.007C187.834 138.221 187.965 110.436 187.912 82.6502L188.095 82.99L149.567 60.6152C136.733 53.1134 123.898 45.6115 111.117 38.0574Z" fill="#FAC23B"/>
<path d="M216.69 95.1724L188.408 111.614L188.277 132.969L216.455 116.371L216.69 95.1724Z" fill="#BF6811"/>
<path d="M153.358 103.197C153.358 109.183 156.546 114.724 161.748 117.73L188.253 132.995L188.384 111.927L163.316 97.4723C158.925 94.8585 153.358 98.0735 153.358 103.197Z" fill="#804C10"/>
<path d="M165.216 114.48C167.827 113.318 168.493 109.115 166.702 105.092C164.911 101.07 161.342 98.7515 158.731 99.9141C156.12 101.077 155.455 105.28 157.246 109.302C159.036 113.325 162.605 115.643 165.216 114.48Z" fill="#C6C6C6"/>
<path d="M202.394 102.988C197.689 105.681 192.984 108.347 188.305 111.065C179.914 106.439 171.628 101.681 163.159 97.1855C171.419 102.152 179.81 106.857 188.148 111.693L188.305 111.771L188.462 111.693C193.193 108.948 197.898 106.151 202.603 103.38C207.334 100.61 212.013 97.8129 216.692 94.9376C211.908 97.5515 207.125 100.244 202.394 102.988Z" fill="#D19916"/>
<path d="M164.205 1.30762L132.656 40.751L178.712 67.3603L189.612 53.7159L164.205 1.30762Z" fill="#DDD9D7"/>
<path d="M155.787 53.9248C152.415 46.998 146.952 44.2534 141.933 46.1354L155.918 54.2123C155.865 54.1077 155.839 54.0032 155.787 53.9248Z" fill="#F0B11B"/>
<path d="M165.63 45.083C165.647 42.6578 164.431 40.6835 162.915 40.6734C161.399 40.6633 160.157 42.6212 160.141 45.0465C160.125 47.4717 161.341 49.446 162.857 49.4561C164.372 49.4661 165.614 47.5083 165.63 45.083Z" fill="#F0B11B"/>
<path d="M185.43 53.377L163.395 7.92169L135.714 42.5294L139.295 44.5944L158.585 20.4944C160.337 24.0755 163.552 24.7028 165.8 21.9059L177.588 46.215C175.34 49.038 174.922 54.2135 176.673 57.7945L172.099 63.5189L175.68 65.5839L185.43 53.377Z" fill="#5089C3"/>
<path d="M124.132 35.8369C130.039 38.9996 135.921 42.1886 141.75 45.4821L159.21 55.3887L176.514 65.5305C182.265 68.9547 187.989 72.4312 193.661 75.9599C187.754 72.7971 181.873 69.6082 176.044 66.3147L158.583 56.4081L141.279 46.2401C135.529 42.8421 129.804 39.3656 124.132 35.8369Z" fill="#603307"/>
<defs>
<clipPath id="bgblur_0_2_8401_clip_path" transform="translate(9.47256 -24.2914)"><rect width="203.677" height="165.819" rx="36.1668" transform="matrix(0.866045 -0.499967 0.866045 0.499967 0 143.352)"/>
</clipPath><linearGradient id="paint0_linear_2_8401" x1="3.40882" y1="9.98594e-06" x2="231.486" y2="105.96" gradientUnits="userSpaceOnUse">
<stop stop-color="white" stop-opacity="0.6"/>
<stop offset="1" stop-color="#C4C4C4" stop-opacity="0.1"/>
</linearGradient>
<linearGradient id="paint1_linear_2_8401" x1="5.11323" y1="5.83068" x2="230.035" y2="107.516" gradientUnits="userSpaceOnUse">
<stop stop-color="white"/>
<stop offset="0.572917" stop-color="#FFFACB" stop-opacity="0.763934"/>
<stop offset="0.71875" stop-color="#A056B3"/>
<stop offset="1" stop-color="white" stop-opacity="0.85"/>
</linearGradient>
<linearGradient id="paint2_linear_2_8401" x1="105.334" y1="98.103" x2="206.724" y2="98.103" gradientUnits="userSpaceOnUse">
<stop stop-color="#F4A76E"/>
<stop offset="0.097" stop-color="#CD7A19"/>
<stop offset="0.468" stop-color="#CD7A19"/>
<stop offset="1" stop-color="#804C10"/>
</linearGradient>
</defs>
</svg>
