<svg width="320" height="221" viewBox="0 0 320 221" fill="none" xmlns="http://www.w3.org/2000/svg">
<foreignObject x="-9.47256" y="18.6481" width="338.945" height="219.192"><div xmlns="http://www.w3.org/1999/xhtml" style="backdrop-filter:blur(13.91px);clip-path:url(#bgblur_0_2_8484_clip_path);height:100%;width:100%"></div></foreignObject><g data-figma-bg-blur-radius="27.8206">
<rect width="203.677" height="165.819" rx="36.1668" transform="matrix(0.866045 -0.499967 0.866045 0.499967 0 137.708)" fill="url(#paint0_linear_2_8484)" fill-opacity="0.6"/>
<rect x="2.40939" width="200.895" height="163.037" rx="34.7757" transform="matrix(0.866045 -0.499967 0.866045 0.499967 0.32275 138.913)" stroke="url(#paint1_linear_2_8484)" stroke-opacity="0.7" stroke-width="2.78206"/>
</g>
<path d="M150.282 149.211L150.135 96.55L226.052 52.7103L171.797 21.4173L95.8802 65.2569L96.0273 117.918C96.0273 120.05 96.5909 121.717 97.5711 122.819C97.8897 123.187 98.2572 123.481 98.6738 123.726L152.928 155.019C151.286 154.063 150.282 152.054 150.282 149.211Z" fill="url(#paint2_linear_2_8484)"/>
<path d="M226.051 52.7094L226.198 105.371C226.222 111.105 222.179 118.089 217.204 120.956L159.348 154.357C154.349 157.248 150.305 154.92 150.281 149.186L150.134 96.549L226.051 52.7094Z" fill="#DDD9D7"/>
<path d="M218.922 32.8844C219.436 32.7129 219.926 32.6148 220.392 32.5658C220.441 32.5658 220.49 32.5658 220.515 32.5413C221.029 32.4923 221.519 32.5168 221.96 32.6148C221.985 32.6148 222.009 32.6148 222.034 32.6393C222.499 32.7374 222.941 32.9089 223.333 33.1294L169.127 1.83641C169.103 1.83641 169.103 1.8119 169.078 1.8119C168.931 1.73839 168.784 1.66487 168.613 1.59136C168.466 1.51784 168.294 1.46883 168.147 1.41982C168.049 1.39532 167.927 1.37081 167.829 1.34631C167.804 1.34631 167.779 1.34631 167.755 1.3218C167.706 1.3218 167.681 1.2973 167.632 1.2973C167.461 1.27279 167.265 1.24829 167.093 1.22378C166.897 1.22378 166.701 1.19928 166.505 1.22378C166.432 1.22378 166.383 1.24829 166.309 1.24829C166.26 1.24829 166.211 1.24829 166.187 1.27279C166.064 1.27279 165.966 1.2973 165.844 1.2973C165.574 1.34631 165.329 1.39532 165.059 1.46883C164.937 1.49334 164.839 1.54235 164.716 1.59136C164.618 1.61586 164.496 1.66487 164.398 1.68938C164.251 1.73839 164.128 1.76289 164.006 1.83641C163.54 2.00795 163.124 2.20399 162.707 2.44904L104.85 35.874C104.262 36.2171 103.699 36.6092 103.159 37.0503C102.988 37.1973 102.816 37.3443 102.645 37.5159C102.375 37.7364 102.106 37.9569 101.836 38.2265C101.714 38.349 101.616 38.4716 101.493 38.5941C101.395 38.6921 101.297 38.8146 101.199 38.9126C101.076 39.0352 100.978 39.1577 100.856 39.2802C100.611 39.5743 100.366 39.8683 100.121 40.1624C100.047 40.2604 99.9493 40.383 99.8757 40.5055C99.8267 40.5545 99.8022 40.628 99.7532 40.677C99.6797 40.775 99.6062 40.8731 99.5327 40.9956C99.3611 41.2406 99.1896 41.5102 99.0181 41.7797C98.8465 42.0248 98.6995 42.2944 98.5525 42.5394C98.528 42.5639 98.528 42.5884 98.5035 42.6129C98.5035 42.6374 98.479 42.6619 98.479 42.6864C98.3564 42.8825 98.2339 43.103 98.1359 43.3236C97.9889 43.5686 97.8663 43.8382 97.7438 44.0832C97.6213 44.3283 97.5233 44.5488 97.4252 44.7939C97.4252 44.7939 97.4252 44.8184 97.4007 44.8184C97.4007 44.8184 97.4007 44.8429 97.3762 44.8429C97.2537 45.1124 97.1557 45.382 97.0331 45.6516C96.9351 45.9456 96.8126 46.2152 96.7391 46.5092C96.6901 46.6563 96.6411 46.8033 96.6166 46.9503C96.5921 47.0238 96.5676 47.0728 96.5676 47.1464C96.543 47.2444 96.494 47.3424 96.4695 47.4404C96.3715 47.7835 96.298 48.1266 96.2245 48.4696C96.1755 48.6902 96.151 48.8862 96.1265 49.1068C96.102 49.2048 96.0774 49.3273 96.0774 49.4253C96.0529 49.5234 96.0284 49.6214 96.0284 49.7194C95.8814 50.3075 95.8324 50.8956 95.8324 51.4593L95.8814 65.3047L150.136 96.5977L150.087 82.7523C150.087 82.0907 150.16 81.38 150.258 80.6939C150.283 80.5958 150.307 80.4733 150.307 80.3753C150.43 79.7137 150.577 79.052 150.773 78.4149C150.797 78.3659 150.822 78.2924 150.822 78.2434C151.042 77.5327 151.312 76.8221 151.606 76.1114C151.606 76.1114 151.606 76.0869 151.631 76.0869C151.949 75.3763 152.292 74.6656 152.709 73.9795C152.709 73.955 152.733 73.9305 152.733 73.906C153.125 73.2443 153.542 72.5827 153.983 71.97C154.032 71.921 154.057 71.8475 154.106 71.7985C154.522 71.2349 154.963 70.7203 155.429 70.2057C155.527 70.1077 155.625 69.9851 155.723 69.8871C156.091 69.495 156.483 69.152 156.875 68.8089C157.046 68.6619 157.218 68.4903 157.389 68.3433C157.953 67.9022 158.517 67.5101 159.08 67.167L216.937 33.7666C217.5 33.448 218.064 33.203 218.603 33.0069C218.726 32.9579 218.824 32.9089 218.922 32.8844Z" fill="url(#paint3_linear_2_8484)"/>
<path d="M216.96 33.7445C221.935 30.8774 226.003 33.1809 226.003 38.9151L226.052 52.7605L150.135 96.6001L150.086 82.7547C150.061 77.0205 154.105 70.0366 159.104 67.1449L216.96 33.7445Z" fill="#F71C55"/>
<path d="M177.869 73.16C179.398 69.3257 178.905 65.5267 176.768 64.6745C174.631 63.8223 171.659 66.2397 170.13 70.0739C168.601 73.9081 169.094 77.7072 171.232 78.5594C173.369 79.4116 176.341 76.9942 177.869 73.16Z" fill="#B70034"/>
<path d="M207.411 55.8483C208.94 52.0141 208.447 48.215 206.31 47.3628C204.173 46.5106 201.201 48.928 199.672 52.7623C198.143 56.5965 198.636 60.3955 200.774 61.2477C202.911 62.0999 205.883 59.6825 207.411 55.8483Z" fill="#B70034"/>
<path d="M172.361 114.293L161.946 106.059L165.353 99.3446L172.361 104.883L184.663 80.7207L188.093 83.4408L172.361 114.293Z" fill="#F71C55"/>
<path d="M172.361 142.349L161.946 134.115L165.353 127.401L172.361 132.915L184.663 108.777L188.093 111.497L172.361 142.349Z" fill="#F0B11B"/>
<path d="M216.249 77.5338L192.797 91.2812V84.6158L216.249 70.8684V77.5338Z" fill="#346BA2"/>
<path d="M216.249 105.593L192.797 119.34V112.675L216.249 98.9273V105.593Z" fill="#346BA2"/>
<defs>
<clipPath id="bgblur_0_2_8484_clip_path" transform="translate(9.47256 -18.6481)"><rect width="203.677" height="165.819" rx="36.1668" transform="matrix(0.866045 -0.499967 0.866045 0.499967 0 137.708)"/>
</clipPath><linearGradient id="paint0_linear_2_8484" x1="3.40882" y1="9.98594e-06" x2="231.486" y2="105.96" gradientUnits="userSpaceOnUse">
<stop stop-color="white" stop-opacity="0.6"/>
<stop offset="1" stop-color="#C4C4C4" stop-opacity="0.1"/>
</linearGradient>
<linearGradient id="paint1_linear_2_8484" x1="5.11323" y1="5.83068" x2="230.035" y2="107.516" gradientUnits="userSpaceOnUse">
<stop stop-color="white"/>
<stop offset="0.572917" stop-color="#FFFACB" stop-opacity="0.763934"/>
<stop offset="0.71875" stop-color="#A056B3"/>
<stop offset="1" stop-color="white" stop-opacity="0.85"/>
</linearGradient>
<linearGradient id="paint2_linear_2_8484" x1="180.705" y1="24.9828" x2="116.678" y2="135.253" gradientUnits="userSpaceOnUse">
<stop stop-color="#C4C4C4"/>
<stop offset="0.159" stop-color="#B2B2B2"/>
<stop offset="0.935" stop-color="#B2B2B2"/>
<stop offset="1" stop-color="#4F5050"/>
</linearGradient>
<linearGradient id="paint3_linear_2_8484" x1="178.398" y1="6.12236" x2="135.244" y2="84.4407" gradientUnits="userSpaceOnUse">
<stop stop-color="#F25F8C"/>
<stop offset="0.17" stop-color="#F71C55"/>
<stop offset="0.356" stop-color="#F11952"/>
<stop offset="0.604" stop-color="#E01249"/>
<stop offset="0.886" stop-color="#C4063B"/>
<stop offset="1" stop-color="#B70034"/>
</linearGradient>
</defs>
</svg>
